<svg xmlns="http://www.w3.org/2000/svg" width="1500" height="2800" fill="none"><g filter="url(#a)"><path fill="url(#b)" d="M-943 723.821h2498.66v956H-943z" transform="rotate(-45 -943 723.821)"/><path fill="url(#c)" d="M1650.25-510.808h1007.51v1678.18H1650.25z" transform="rotate(45 1650.25 -510.808)"/><path fill="url(#d)" d="M463.626 675.847h1007.51v1006.55H463.626z" transform="rotate(45 463.626 675.847)"/><path fill="url(#e)" d="M2049.63 513.847h1007.51v1236.05H2049.63z" transform="rotate(45 2049.63 513.847)"/><path fill="url(#f)" d="m-248.655 1387.85 712.417 712.41-546.71 546.71-712.418-712.41 546.711-546.71Z"/></g><defs><linearGradient id="b" x1="306.331" x2="306.331" y1="1002.69" y2="1679.82" gradientUnits="userSpaceOnUse"><stop stop-color="#fff"/><stop offset="1" stop-color="#E5EEF0"/></linearGradient><linearGradient id="c" x1="2185.54" x2="1691.98" y1="359.148" y2="1122.82" gradientUnits="userSpaceOnUse"><stop stop-color="#ACD0FF"/><stop offset="1" stop-color="#FFCCF7"/></linearGradient><linearGradient id="d" x1="463.61" x2="1061.12" y1="675.862" y2="1273.37" gradientUnits="userSpaceOnUse"><stop stop-color="#E5EEF0"/><stop offset="1" stop-color="#E9F1F2"/></linearGradient><linearGradient id="e" x1="2553.38" x2="2553.38" y1="1200.87" y2="1749.9" gradientUnits="userSpaceOnUse"><stop stop-color="#D0FDFF"/><stop offset="1" stop-color="#71FDFF"/></linearGradient><linearGradient id="f" x1="-193.897" x2="238.103" y1="1867.35" y2="2299.35" gradientUnits="userSpaceOnUse"><stop stop-color="#FFEEFC"/><stop offset="1" stop-color="#FF85E5"/></linearGradient><filter id="a" width="4105.04" height="4089.97" x="-1143" y="-1243" color-interpolation-filters="sRGB" filterUnits="userSpaceOnUse"><feFlood flood-opacity="0" result="BackgroundImageFix"/><feBlend in="SourceGraphic" in2="BackgroundImageFix" result="shape"/><feGaussianBlur result="effect1_foregroundBlur_14_264" stdDeviation="100"/></filter></defs></svg>
