<svg width="1500" height="2800" viewBox="0 0 1500 2800" fill="none" xmlns="http://www.w3.org/2000/svg">
<g filter="url(#filter0_f_14_264)">
<rect x="-951.604" y="741.974" width="2498.66" height="956" transform="rotate(-45 -951.604 741.974)" fill="url(#paint0_linear_14_264)"/>
<rect x="1650.65" y="-510.655" width="1007.51" height="1678.18" transform="rotate(45 1650.65 -510.655)" fill="url(#paint1_linear_14_264)"/>
<rect x="464.022" y="676" width="1007.51" height="1006.55" transform="rotate(45 464.022 676)" fill="url(#paint2_linear_14_264)"/>
<rect x="2050.02" y="514" width="1007.51" height="1236.05" transform="rotate(45 2050.02 514)" fill="url(#paint3_linear_14_264)"/>
<rect x="-248.258" y="1388" width="1007.51" height="773.165" transform="rotate(45 -248.258 1388)" fill="url(#paint4_linear_14_264)"/>
</g>
<defs>
<filter id="filter0_f_14_264" x="-1151.6" y="-1224.85" width="4114.04" height="4071.97" filterUnits="userSpaceOnUse" color-interpolation-filters="sRGB">
<feFlood flood-opacity="0" result="BackgroundImageFix"/>
<feBlend mode="normal" in="SourceGraphic" in2="BackgroundImageFix" result="shape"/>
<feGaussianBlur stdDeviation="100" result="effect1_foregroundBlur_14_264"/>
</filter>
<linearGradient id="paint0_linear_14_264" x1="297.728" y1="1020.85" x2="297.728" y2="1697.97" gradientUnits="userSpaceOnUse">
<stop stop-color="#250F85"/>
<stop offset="1" stop-color="#040921"/>
</linearGradient>
<linearGradient id="paint1_linear_14_264" x1="2185.93" y1="359.301" x2="1692.37" y2="1122.98" gradientUnits="userSpaceOnUse">
<stop stop-color="#0117FF"/>
<stop offset="1" stop-color="#D30FFF"/>
</linearGradient>
<linearGradient id="paint2_linear_14_264" x1="464.007" y1="676.016" x2="1061.51" y2="1273.52" gradientUnits="userSpaceOnUse">
<stop stop-color="#4420B9"/>
<stop offset="1" stop-color="#040921"/>
</linearGradient>
<linearGradient id="paint3_linear_14_264" x1="2553.78" y1="1201.02" x2="2553.78" y2="1750.05" gradientUnits="userSpaceOnUse">
<stop stop-color="#2AF8FF"/>
<stop offset="1" stop-color="#71FDFF"/>
</linearGradient>
<linearGradient id="paint4_linear_14_264" x1="129.52" y1="1688.34" x2="740.46" y2="1688.34" gradientUnits="userSpaceOnUse">
<stop stop-color="#FF58DF"/>
<stop offset="1" stop-color="#88006B"/>
</linearGradient>
</defs>
</svg>
