<svg xmlns="http://www.w3.org/2000/svg" width="1500" height="2800" fill="none"><g filter="url(#a)"><path fill="url(#b)" d="M-951.604 741.974h2498.66v956h-2498.66z" transform="rotate(-45 -951.604 741.974)"/><path fill="url(#c)" d="M1650.65-510.655h1007.51v1678.18H1650.65z" transform="rotate(45 1650.65 -510.655)"/><path fill="url(#d)" d="M464.022 676h1007.51v1006.55H464.022z" transform="rotate(45 464.022 676)"/><path fill="url(#e)" d="M2050.02 514h1007.51v1236.05H2050.02z" transform="rotate(45 2050.02 514)"/><path fill="url(#f)" d="M-248.258 1388h1007.51v773.165h-1007.51z" transform="rotate(45 -248.258 1388)"/></g><defs><linearGradient id="b" x1="297.728" x2="297.728" y1="1020.85" y2="1697.97" gradientUnits="userSpaceOnUse"><stop stop-color="#250F85"/><stop offset="1" stop-color="#040921"/></linearGradient><linearGradient id="c" x1="2185.93" x2="1692.37" y1="359.301" y2="1122.98" gradientUnits="userSpaceOnUse"><stop stop-color="#0117FF"/><stop offset="1" stop-color="#D30FFF"/></linearGradient><linearGradient id="d" x1="464.007" x2="1061.51" y1="676.016" y2="1273.52" gradientUnits="userSpaceOnUse"><stop stop-color="#4420B9"/><stop offset="1" stop-color="#040921"/></linearGradient><linearGradient id="e" x1="2553.78" x2="2553.78" y1="1201.02" y2="1750.05" gradientUnits="userSpaceOnUse"><stop stop-color="#2AF8FF"/><stop offset="1" stop-color="#71FDFF"/></linearGradient><linearGradient id="f" x1="129.52" x2="740.46" y1="1688.34" y2="1688.34" gradientUnits="userSpaceOnUse"><stop stop-color="#FF58DF"/><stop offset="1" stop-color="#88006B"/></linearGradient><filter id="a" width="4114.04" height="4071.97" x="-1151.6" y="-1224.85" color-interpolation-filters="sRGB" filterUnits="userSpaceOnUse"><feFlood flood-opacity="0" result="BackgroundImageFix"/><feBlend in="SourceGraphic" in2="BackgroundImageFix" result="shape"/><feGaussianBlur result="effect1_foregroundBlur_14_264" stdDeviation="100"/></filter></defs></svg>
