<svg width="1500" height="2800" viewBox="0 0 1500 2800" fill="none" xmlns="http://www.w3.org/2000/svg">
<g filter="url(#filter0_f_14_264)">
<rect x="-943" y="723.821" width="2498.66" height="956" transform="rotate(-45 -943 723.821)" fill="url(#paint0_linear_14_264)"/>
<rect x="1650.25" y="-510.808" width="1007.51" height="1678.18" transform="rotate(45 1650.25 -510.808)" fill="url(#paint1_linear_14_264)"/>
<rect x="463.626" y="675.847" width="1007.51" height="1006.55" transform="rotate(45 463.626 675.847)" fill="url(#paint2_linear_14_264)"/>
<rect x="2049.63" y="513.847" width="1007.51" height="1236.05" transform="rotate(45 2049.63 513.847)" fill="url(#paint3_linear_14_264)"/>
<path d="M-248.655 1387.85L463.762 2100.26L-82.9484 2646.97L-795.366 1934.56L-248.655 1387.85Z" fill="url(#paint4_linear_14_264)"/>
</g>
<defs>
<filter id="filter0_f_14_264" x="-1143" y="-1243" width="4105.04" height="4089.97" filterUnits="userSpaceOnUse" color-interpolation-filters="sRGB">
<feFlood flood-opacity="0" result="BackgroundImageFix"/>
<feBlend mode="normal" in="SourceGraphic" in2="BackgroundImageFix" result="shape"/>
<feGaussianBlur stdDeviation="100" result="effect1_foregroundBlur_14_264"/>
</filter>
<linearGradient id="paint0_linear_14_264" x1="306.331" y1="1002.69" x2="306.331" y2="1679.82" gradientUnits="userSpaceOnUse">
<stop stop-color="white"/>
<stop offset="1" stop-color="#E5EEF0"/>
</linearGradient>
<linearGradient id="paint1_linear_14_264" x1="2185.54" y1="359.148" x2="1691.98" y2="1122.82" gradientUnits="userSpaceOnUse">
<stop stop-color="#ACD0FF"/>
<stop offset="1" stop-color="#FFCCF7"/>
</linearGradient>
<linearGradient id="paint2_linear_14_264" x1="463.61" y1="675.862" x2="1061.12" y2="1273.37" gradientUnits="userSpaceOnUse">
<stop stop-color="#E5EEF0"/>
<stop offset="1" stop-color="#E9F1F2"/>
</linearGradient>
<linearGradient id="paint3_linear_14_264" x1="2553.38" y1="1200.87" x2="2553.38" y2="1749.9" gradientUnits="userSpaceOnUse">
<stop stop-color="#D0FDFF"/>
<stop offset="1" stop-color="#71FDFF"/>
</linearGradient>
<linearGradient id="paint4_linear_14_264" x1="-193.897" y1="1867.35" x2="238.103" y2="2299.35" gradientUnits="userSpaceOnUse">
<stop stop-color="#FFEEFC"/>
<stop offset="1" stop-color="#FF85E5"/>
</linearGradient>
</defs>
</svg>
